<?xml version="1.0" encoding="UTF-8" standalone="no"?>
<svg
   xmlns:dc="http://purl.org/dc/elements/1.1/"
   xmlns:cc="http://creativecommons.org/ns#"
   xmlns:rdf="http://www.w3.org/1999/02/22-rdf-syntax-ns#"
   xmlns:svg="http://www.w3.org/2000/svg"
   xmlns="http://www.w3.org/2000/svg"
   xmlns:sodipodi="http://sodipodi.sourceforge.net/DTD/sodipodi-0.dtd"
   xmlns:inkscape="http://www.inkscape.org/namespaces/inkscape"
   version="1.1"
   id="Capa_1"
   x="0px"
   y="0px"
   viewBox="0 0 16.003265 15.999999"
   xml:space="preserve"
   sodipodi:docname="user-icon.svg"
   width="16.003265"
   height="15.999999"
   inkscape:version="1.0.1 (3bc2e813f5, 2020-09-07)"><metadata
   id="metadata45"><rdf:RDF><cc:Work
       rdf:about=""><dc:format>image/svg+xml</dc:format><dc:type
         rdf:resource="http://purl.org/dc/dcmitype/StillImage" /></cc:Work></rdf:RDF></metadata><defs
   id="defs43" /><sodipodi:namedview
   pagecolor="#ffffff"
   bordercolor="#666666"
   borderopacity="1"
   objecttolerance="10"
   gridtolerance="10"
   guidetolerance="10"
   inkscape:pageopacity="0"
   inkscape:pageshadow="2"
   inkscape:window-width="1920"
   inkscape:window-height="1017"
   id="namedview41"
   showgrid="false"
   inkscape:zoom="2.452727"
   inkscape:cx="15.409093"
   inkscape:cy="-54.796824"
   inkscape:window-x="-8"
   inkscape:window-y="-8"
   inkscape:window-maximized="1"
   inkscape:current-layer="Capa_1" />
<g
   id="g8"
   transform="matrix(0.03265306,0,0,0.03265306,0,-0.00163265)"
   style="fill:#ffffff">
	<g
   id="g6"
   style="fill:#ffffff">
		<path
   d="m 245,261.75 c 71.9,0 131.4,-57.3 131.4,-130.3 0,-73 -59.5,-131.4 -131.4,-131.4 -71.9,0 -131.4,57.3 -131.4,130.3 0,73 59.5,131.4 131.4,131.4 z m 0,-221 c 50,0 90.7,40.7 90.7,89.7 0,49 -40.7,89.6 -90.7,89.6 -50,0 -90.7,-40.7 -90.7,-89.7 0,-49 40.7,-89.6 90.7,-89.6 z"
   id="path2"
   style="fill:#ffffff" />
		<path
   d="m 333.6,274.25 c -8.3,-2.1 -16.7,0 -21.9,6.3 l -66.7,76.1 -66.7,-76.1 c -5.2,-6.3 -14.6,-8.3 -21.9,-6.3 C 61.5,305.55 0,382.65 0,469.15 c 0,11.5 9.4,20.9 20.9,20.9 h 448.3 c 11.5,0 20.9,-9.4 20.9,-20.9 -0.1,-86.5 -61.6,-163.6 -156.5,-194.9 z M 42.7,449.35 c 8.4,-57.3 50.1,-106.3 114.7,-131.3 l 73,83.4 c 7.3,9.4 22.9,9.4 30.2,0 l 73,-83.4 c 63.6,25 106.4,75 114.7,131.3 H 42.7 Z"
   id="path4"
   style="fill:#ffffff" />
	</g>
</g>
<g
   id="g10"
   transform="translate(0,-0.05)"
   style="fill:#ffffff">
</g>
<g
   id="g12"
   transform="translate(0,-0.05)"
   style="fill:#ffffff">
</g>
<g
   id="g14"
   transform="translate(0,-0.05)"
   style="fill:#ffffff">
</g>
<g
   id="g16"
   transform="translate(0,-0.05)"
   style="fill:#ffffff">
</g>
<g
   id="g18"
   transform="translate(0,-0.05)"
   style="fill:#ffffff">
</g>
<g
   id="g20"
   transform="translate(0,-0.05)"
   style="fill:#ffffff">
</g>
<g
   id="g22"
   transform="translate(0,-0.05)"
   style="fill:#ffffff">
</g>
<g
   id="g24"
   transform="translate(0,-0.05)"
   style="fill:#ffffff">
</g>
<g
   id="g26"
   transform="translate(0,-0.05)"
   style="fill:#ffffff">
</g>
<g
   id="g28"
   transform="translate(0,-0.05)"
   style="fill:#ffffff">
</g>
<g
   id="g30"
   transform="translate(0,-0.05)"
   style="fill:#ffffff">
</g>
<g
   id="g32"
   transform="translate(0,-0.05)"
   style="fill:#ffffff">
</g>
<g
   id="g34"
   transform="translate(0,-0.05)"
   style="fill:#ffffff">
</g>
<g
   id="g36"
   transform="translate(0,-0.05)"
   style="fill:#ffffff">
</g>
<g
   id="g38"
   transform="translate(0,-0.05)"
   style="fill:#ffffff">
</g>
</svg>
