<?xml version="1.0" encoding="UTF-8" standalone="no"?>
<svg
   xmlns:dc="http://purl.org/dc/elements/1.1/"
   xmlns:cc="http://creativecommons.org/ns#"
   xmlns:rdf="http://www.w3.org/1999/02/22-rdf-syntax-ns#"
   xmlns:svg="http://www.w3.org/2000/svg"
   xmlns="http://www.w3.org/2000/svg"
   xmlns:sodipodi="http://sodipodi.sourceforge.net/DTD/sodipodi-0.dtd"
   xmlns:inkscape="http://www.inkscape.org/namespaces/inkscape"
   version="1.1"
   id="Layer_1"
   x="0px"
   y="0px"
   viewBox="0 0 14.076021 15.999999"
   xml:space="preserve"
   sodipodi:docname="trash-icon.svg"
   width="14.076021"
   height="15.999999"
   inkscape:version="1.0.1 (3bc2e813f5, 2020-09-07)"><metadata
   id="metadata51"><rdf:RDF><cc:Work
       rdf:about=""><dc:format>image/svg+xml</dc:format><dc:type
         rdf:resource="http://purl.org/dc/dcmitype/StillImage" /><dc:title></dc:title></cc:Work></rdf:RDF></metadata><defs
   id="defs49" /><sodipodi:namedview
   pagecolor="#ffffff"
   bordercolor="#666666"
   borderopacity="1"
   objecttolerance="10"
   gridtolerance="10"
   guidetolerance="10"
   inkscape:pageopacity="0"
   inkscape:pageshadow="2"
   inkscape:window-width="1920"
   inkscape:window-height="1017"
   id="namedview47"
   showgrid="false"
   inkscape:zoom="7.4154853"
   inkscape:cx="-35.556727"
   inkscape:cy="12.395043"
   inkscape:window-x="-8"
   inkscape:window-y="-8"
   inkscape:window-maximized="1"
   inkscape:current-layer="Layer_1" />
<g
   id="g14"
   transform="matrix(0.0348964,0,0,0.0348964,-0.96198906,0)">
	<g
   id="g12">
		<g
   id="g10">
			<path
   d="m 382.078,57.069 h -89.78 C 289.128,25.075 262.064,0 229.249,0 196.434,0 169.37,25.075 166.2,57.069 H 76.421 c -26.938,0 -48.854,21.916 -48.854,48.854 0,26.125 20.613,47.524 46.429,48.793 V 399.5 c 0,32.533 26.467,59 59,59 h 192.508 c 32.533,0 59,-26.467 59,-59 V 154.717 c 25.816,-1.269 46.429,-22.668 46.429,-48.793 0,-26.939 -21.916,-48.855 -48.855,-48.855 z M 229.249,30 c 16.244,0 29.807,11.673 32.76,27.069 h -65.52 C 199.442,41.673 213.005,30 229.249,30 Z m 125.254,369.501 c 0,15.991 -13.009,29 -29,29 H 132.995 c -15.991,0 -29,-13.009 -29,-29 V 154.778 c 12.244,0 240.932,0 250.508,0 z m 27.575,-274.723 c -3.127,0 -302.998,0 -305.657,0 -10.396,0 -18.854,-8.458 -18.854,-18.854 0,-10.396 8.458,-18.854 18.854,-18.854 h 305.657 c 10.396,0 18.854,8.458 18.854,18.854 0,10.396 -8.457,18.854 -18.854,18.854 z"
   id="path2" />
			<path
   d="m 229.249,392.323 c 8.284,0 15,-6.716 15,-15 V 203.618 c 0,-8.284 -6.715,-15 -15,-15 -8.284,0 -15,6.716 -15,15 v 173.705 c 0,8.284 6.716,15 15,15 z"
   id="path4" />
			<path
   d="m 306.671,392.323 c 8.284,0 15,-6.716 15,-15 V 203.618 c 0,-8.284 -6.716,-15 -15,-15 -8.284,0 -15,6.716 -15,15 v 173.705 c 0,8.284 6.716,15 15,15 z"
   id="path6" />
			<path
   d="m 151.828,392.323 c 8.284,0 15,-6.716 15,-15 V 203.618 c 0,-8.284 -6.716,-15 -15,-15 -8.284,0 -15,6.716 -15,15 v 173.705 c 0,8.284 6.716,15 15,15 z"
   id="path8" />
		</g>
	</g>
</g>
<g
   id="g16"
   transform="matrix(0.0348964,0,0,0.0348964,-0.96198906,0)">
</g>
<g
   id="g18"
   transform="matrix(0.0348964,0,0,0.0348964,-0.96198906,0)">
</g>
<g
   id="g20"
   transform="matrix(0.0348964,0,0,0.0348964,-0.96198906,0)">
</g>
<g
   id="g22"
   transform="matrix(0.0348964,0,0,0.0348964,-0.96198906,0)">
</g>
<g
   id="g24"
   transform="matrix(0.0348964,0,0,0.0348964,-0.96198906,0)">
</g>
<g
   id="g26"
   transform="matrix(0.0348964,0,0,0.0348964,-0.96198906,0)">
</g>
<g
   id="g28"
   transform="matrix(0.0348964,0,0,0.0348964,-0.96198906,0)">
</g>
<g
   id="g30"
   transform="matrix(0.0348964,0,0,0.0348964,-0.96198906,0)">
</g>
<g
   id="g32"
   transform="matrix(0.0348964,0,0,0.0348964,-0.96198906,0)">
</g>
<g
   id="g34"
   transform="matrix(0.0348964,0,0,0.0348964,-0.96198906,0)">
</g>
<g
   id="g36"
   transform="matrix(0.0348964,0,0,0.0348964,-0.96198906,0)">
</g>
<g
   id="g38"
   transform="matrix(0.0348964,0,0,0.0348964,-0.96198906,0)">
</g>
<g
   id="g40"
   transform="matrix(0.0348964,0,0,0.0348964,-0.96198906,0)">
</g>
<g
   id="g42"
   transform="matrix(0.0348964,0,0,0.0348964,-0.96198906,0)">
</g>
<g
   id="g44"
   transform="matrix(0.0348964,0,0,0.0348964,-0.96198906,0)">
</g>
</svg>
