<?xml version="1.0" encoding="UTF-8" standalone="no"?>
<svg
   xmlns:dc="http://purl.org/dc/elements/1.1/"
   xmlns:cc="http://creativecommons.org/ns#"
   xmlns:rdf="http://www.w3.org/1999/02/22-rdf-syntax-ns#"
   xmlns:svg="http://www.w3.org/2000/svg"
   xmlns="http://www.w3.org/2000/svg"
   xmlns:sodipodi="http://sodipodi.sourceforge.net/DTD/sodipodi-0.dtd"
   xmlns:inkscape="http://www.inkscape.org/namespaces/inkscape"
   version="1.1"
   id="Capa_1"
   x="0px"
   y="0px"
   viewBox="0 0 25.093652 14"
   xml:space="preserve"
   sodipodi:docname="chevron-icon.svg"
   width="25.093651"
   height="14"
   inkscape:version="1.0.1 (3bc2e813f5, 2020-09-07)"><metadata
   id="metadata43"><rdf:RDF><cc:Work
       rdf:about=""><dc:format>image/svg+xml</dc:format><dc:type
         rdf:resource="http://purl.org/dc/dcmitype/StillImage" /><dc:title></dc:title></cc:Work></rdf:RDF></metadata><defs
   id="defs41" /><sodipodi:namedview
   pagecolor="#ffffff"
   bordercolor="#666666"
   borderopacity="1"
   objecttolerance="10"
   gridtolerance="10"
   guidetolerance="10"
   inkscape:pageopacity="0"
   inkscape:pageshadow="2"
   inkscape:window-width="1920"
   inkscape:window-height="1001"
   id="namedview39"
   showgrid="false"
   inkscape:zoom="1.4142136"
   inkscape:cx="23.947837"
   inkscape:cy="58.44251"
   inkscape:window-x="-9"
   inkscape:window-y="-9"
   inkscape:window-maximized="1"
   inkscape:current-layer="Capa_1" />
<g
   id="g6"
   transform="matrix(0,0.13538997,-0.13538997,0,25.093583,-5.546724)"
   style="opacity:1;fill:#ffffff">
	<g
   id="g4"
   style="fill:#ffffff">
		<path
   style="fill:#ffffff"
   d="m 51.707,185.343 c -2.741,0 -5.493,-1.044 -7.593,-3.149 -4.194,-4.194 -4.194,-10.981 0,-15.175 L 118.466,92.672 44.114,18.32 c -4.194,-4.194 -4.194,-10.987 0,-15.175 4.194,-4.194 10.987,-4.194 15.18,0 l 81.934,81.934 c 4.194,4.194 4.194,10.987 0,15.175 l -81.934,81.939 c -2.093,2.1 -4.84,3.15 -7.587,3.15 z"
   id="path2" />
	</g>
</g>
<g
   id="g8"
   transform="matrix(0,0.13538997,-0.13538997,0,5.5467565,-11.09355)"
   style="opacity:1;fill:#ffffff">
</g>
<g
   id="g10"
   transform="matrix(0,0.13538997,-0.13538997,0,5.5467565,-11.09355)"
   style="opacity:1;fill:#ffffff">
</g>
<g
   id="g12"
   transform="matrix(0,0.13538997,-0.13538997,0,5.5467565,-11.09355)"
   style="opacity:1;fill:#ffffff">
</g>
<g
   id="g14"
   transform="matrix(0,0.13538997,-0.13538997,0,5.5467565,-11.09355)"
   style="opacity:1;fill:#ffffff">
</g>
<g
   id="g16"
   transform="matrix(0,0.13538997,-0.13538997,0,5.5467565,-11.09355)"
   style="opacity:1;fill:#ffffff">
</g>
<g
   id="g18"
   transform="matrix(0,0.13538997,-0.13538997,0,5.5467565,-11.09355)"
   style="opacity:1;fill:#ffffff">
</g>
<g
   id="g20"
   transform="matrix(0,0.13538997,-0.13538997,0,5.5467565,-11.09355)"
   style="opacity:1;fill:#ffffff">
</g>
<g
   id="g22"
   transform="matrix(0,0.13538997,-0.13538997,0,5.5467565,-11.09355)"
   style="opacity:1;fill:#ffffff">
</g>
<g
   id="g24"
   transform="matrix(0,0.13538997,-0.13538997,0,5.5467565,-11.09355)"
   style="opacity:1;fill:#ffffff">
</g>
<g
   id="g26"
   transform="matrix(0,0.13538997,-0.13538997,0,5.5467565,-11.09355)"
   style="opacity:1;fill:#ffffff">
</g>
<g
   id="g28"
   transform="matrix(0,0.13538997,-0.13538997,0,5.5467565,-11.09355)"
   style="opacity:1;fill:#ffffff">
</g>
<g
   id="g30"
   transform="matrix(0,0.13538997,-0.13538997,0,5.5467565,-11.09355)"
   style="opacity:1;fill:#ffffff">
</g>
<g
   id="g32"
   transform="matrix(0,0.13538997,-0.13538997,0,5.5467565,-11.09355)"
   style="opacity:1;fill:#ffffff">
</g>
<g
   id="g34"
   transform="matrix(0,0.13538997,-0.13538997,0,5.5467565,-11.09355)"
   style="opacity:1;fill:#ffffff">
</g>
<g
   id="g36"
   transform="matrix(0,0.13538997,-0.13538997,0,5.5467565,-11.09355)"
   style="opacity:1;fill:#ffffff">
</g>
</svg>
