<?xml version="1.0" encoding="UTF-8" standalone="no"?>
<svg
   xmlns:dc="http://purl.org/dc/elements/1.1/"
   xmlns:cc="http://creativecommons.org/ns#"
   xmlns:rdf="http://www.w3.org/1999/02/22-rdf-syntax-ns#"
   xmlns:svg="http://www.w3.org/2000/svg"
   xmlns="http://www.w3.org/2000/svg"
   xmlns:sodipodi="http://sodipodi.sourceforge.net/DTD/sodipodi-0.dtd"
   xmlns:inkscape="http://www.inkscape.org/namespaces/inkscape"
   version="1.1"
   id="Capa_1"
   x="0px"
   y="0px"
   viewBox="0 0 19.901369 13.999999"
   xml:space="preserve"
   sodipodi:docname="checked-icon.svg"
   width="19.901369"
   height="14"
   inkscape:version="1.0.1 (3bc2e813f5, 2020-09-07)"><metadata
   id="metadata52"><rdf:RDF><cc:Work
       rdf:about=""><dc:format>image/svg+xml</dc:format><dc:type
         rdf:resource="http://purl.org/dc/dcmitype/StillImage" /><dc:title></dc:title></cc:Work></rdf:RDF></metadata><defs
   id="defs50" /><sodipodi:namedview
   pagecolor="#ffffff"
   bordercolor="#666666"
   borderopacity="1"
   objecttolerance="10"
   gridtolerance="10"
   guidetolerance="10"
   inkscape:pageopacity="0"
   inkscape:pageshadow="2"
   inkscape:window-width="1920"
   inkscape:window-height="1001"
   id="namedview48"
   showgrid="false"
   inkscape:zoom="1"
   inkscape:cx="144.4705"
   inkscape:cy="101.6305"
   inkscape:window-x="-9"
   inkscape:window-y="-9"
   inkscape:window-maximized="1"
   inkscape:current-layer="Capa_1" />
<g
   id="g15"
   transform="matrix(0.06887696,0,0,0.06887696,0,-2.950689)">
	<path
   id="Check"
   d="m 285.377,46.368 c -4.74,-4.704 -12.439,-4.704 -17.179,0 L 96.309,217.114 20.734,142.61 c -4.74,-4.704 -12.439,-4.704 -17.179,0 -4.74,4.704 -4.74,12.319 0,17.011 l 84.2,82.997 c 4.692,4.644 12.499,4.644 17.191,0 L 285.376,63.379 c 4.753,-4.692 4.753,-12.319 0.001,-17.011 -4.74,-4.704 4.752,4.692 0,0 z" />
	<g
   id="g3">
	</g>
	<g
   id="g5">
	</g>
	<g
   id="g7">
	</g>
	<g
   id="g9">
	</g>
	<g
   id="g11">
	</g>
	<g
   id="g13">
	</g>
</g>
<g
   id="g17"
   transform="matrix(0.06887696,0,0,0.06887696,0,-2.950689)">
</g>
<g
   id="g19"
   transform="matrix(0.06887696,0,0,0.06887696,0,-2.950689)">
</g>
<g
   id="g21"
   transform="matrix(0.06887696,0,0,0.06887696,0,-2.950689)">
</g>
<g
   id="g23"
   transform="matrix(0.06887696,0,0,0.06887696,0,-2.950689)">
</g>
<g
   id="g25"
   transform="matrix(0.06887696,0,0,0.06887696,0,-2.950689)">
</g>
<g
   id="g27"
   transform="matrix(0.06887696,0,0,0.06887696,0,-2.950689)">
</g>
<g
   id="g29"
   transform="matrix(0.06887696,0,0,0.06887696,0,-2.950689)">
</g>
<g
   id="g31"
   transform="matrix(0.06887696,0,0,0.06887696,0,-2.950689)">
</g>
<g
   id="g33"
   transform="matrix(0.06887696,0,0,0.06887696,0,-2.950689)">
</g>
<g
   id="g35"
   transform="matrix(0.06887696,0,0,0.06887696,0,-2.950689)">
</g>
<g
   id="g37"
   transform="matrix(0.06887696,0,0,0.06887696,0,-2.950689)">
</g>
<g
   id="g39"
   transform="matrix(0.06887696,0,0,0.06887696,0,-2.950689)">
</g>
<g
   id="g41"
   transform="matrix(0.06887696,0,0,0.06887696,0,-2.950689)">
</g>
<g
   id="g43"
   transform="matrix(0.06887696,0,0,0.06887696,0,-2.950689)">
</g>
<g
   id="g45"
   transform="matrix(0.06887696,0,0,0.06887696,0,-2.950689)">
</g>
</svg>
