<?xml version="1.0" encoding="UTF-8" standalone="no"?>
<svg
   xmlns:dc="http://purl.org/dc/elements/1.1/"
   xmlns:cc="http://creativecommons.org/ns#"
   xmlns:rdf="http://www.w3.org/1999/02/22-rdf-syntax-ns#"
   xmlns:svg="http://www.w3.org/2000/svg"
   xmlns="http://www.w3.org/2000/svg"
   xmlns:sodipodi="http://sodipodi.sourceforge.net/DTD/sodipodi-0.dtd"
   xmlns:inkscape="http://www.inkscape.org/namespaces/inkscape"
   version="1.1"
   id="Layer_1"
   x="0px"
   y="0px"
   viewBox="0 0 9.757575 13.999999"
   xml:space="preserve"
   sodipodi:docname="lock-icon.svg"
   width="9.757575"
   height="13.999999"
   inkscape:version="1.0.1 (3bc2e813f5, 2020-09-07)"><metadata
   id="metadata39"><rdf:RDF><cc:Work
       rdf:about=""><dc:format>image/svg+xml</dc:format><dc:type
         rdf:resource="http://purl.org/dc/dcmitype/StillImage" /></cc:Work></rdf:RDF></metadata><defs
   id="defs37" /><sodipodi:namedview
   pagecolor="#ffffff"
   bordercolor="#666666"
   borderopacity="1"
   objecttolerance="10"
   gridtolerance="10"
   guidetolerance="10"
   inkscape:pageopacity="0"
   inkscape:pageshadow="2"
   inkscape:window-width="1920"
   inkscape:window-height="1017"
   id="namedview35"
   showgrid="false"
   inkscape:zoom="2.5757576"
   inkscape:cx="115"
   inkscape:cy="165"
   inkscape:window-x="-8"
   inkscape:window-y="-8"
   inkscape:window-maximized="1"
   inkscape:current-layer="Layer_1" />
<g
   id="XMLID_504_"
   transform="matrix(0.04242424,0,0,0.04242424,-2.121212,0)"
   style="fill:#ffffff">
	<path
   id="XMLID_505_"
   d="m 65,330 h 200 c 8.284,0 15,-6.716 15,-15 V 145 c 0,-8.284 -6.716,-15 -15,-15 H 250 V 85 C 250,38.131 211.869,0 165,0 118.131,0 80,38.131 80,85 v 45 H 65 c -8.284,0 -15,6.716 -15,15 v 170 c 0,8.284 6.716,15 15,15 z m 142.481,-110.644 -42.5,42.5 c -2.929,2.929 -6.768,4.394 -10.606,4.394 -3.838,0 -7.678,-1.465 -10.606,-4.394 l -21.25,-21.25 c -5.858,-5.858 -5.858,-15.354 0,-21.213 5.857,-5.858 15.355,-5.858 21.213,0 l 10.644,10.643 31.894,-31.893 c 5.857,-5.858 15.355,-5.858 21.213,0 5.857,5.859 5.857,15.355 -0.002,21.213 z M 110,85 c 0,-30.327 24.673,-55 55,-55 30.327,0 55,24.673 55,55 v 45 H 110 Z"
   style="fill:#ffffff" />
</g>
<g
   id="g4"
   transform="matrix(0.04242424,0,0,0.04242424,-2.121212,0)"
   style="fill:#ffffff">
</g>
<g
   id="g6"
   transform="matrix(0.04242424,0,0,0.04242424,-2.121212,0)"
   style="fill:#ffffff">
</g>
<g
   id="g8"
   transform="matrix(0.04242424,0,0,0.04242424,-2.121212,0)"
   style="fill:#ffffff">
</g>
<g
   id="g10"
   transform="matrix(0.04242424,0,0,0.04242424,-2.121212,0)"
   style="fill:#ffffff">
</g>
<g
   id="g12"
   transform="matrix(0.04242424,0,0,0.04242424,-2.121212,0)"
   style="fill:#ffffff">
</g>
<g
   id="g14"
   transform="matrix(0.04242424,0,0,0.04242424,-2.121212,0)"
   style="fill:#ffffff">
</g>
<g
   id="g16"
   transform="matrix(0.04242424,0,0,0.04242424,-2.121212,0)"
   style="fill:#ffffff">
</g>
<g
   id="g18"
   transform="matrix(0.04242424,0,0,0.04242424,-2.121212,0)"
   style="fill:#ffffff">
</g>
<g
   id="g20"
   transform="matrix(0.04242424,0,0,0.04242424,-2.121212,0)"
   style="fill:#ffffff">
</g>
<g
   id="g22"
   transform="matrix(0.04242424,0,0,0.04242424,-2.121212,0)"
   style="fill:#ffffff">
</g>
<g
   id="g24"
   transform="matrix(0.04242424,0,0,0.04242424,-2.121212,0)"
   style="fill:#ffffff">
</g>
<g
   id="g26"
   transform="matrix(0.04242424,0,0,0.04242424,-2.121212,0)"
   style="fill:#ffffff">
</g>
<g
   id="g28"
   transform="matrix(0.04242424,0,0,0.04242424,-2.121212,0)"
   style="fill:#ffffff">
</g>
<g
   id="g30"
   transform="matrix(0.04242424,0,0,0.04242424,-2.121212,0)"
   style="fill:#ffffff">
</g>
<g
   id="g32"
   transform="matrix(0.04242424,0,0,0.04242424,-2.121212,0)"
   style="fill:#ffffff">
</g>
</svg>
